#!OML:ASF C:\Vicon Data\Big\jianyuan-12\jianyuan\Session 1\Capture.male.ASF
:FULLY-SPECIFIED
:DEGREES
251
root -13.081988 16.549289 -6.724654 0.571782 -30.230956 12.627630
lowerback -8.749297 -3.409288 -10.897186 
upperback 2.461803 -3.120147 -1.734596 
thorax 8.090824 -1.985044 3.751929 
lowerneck -1.681545 -5.695304 -6.864302 
upperneck 7.227470 -7.806164 6.844114 
head 3.284072 -3.854136 3.216766 
rclavicle 0.000000 0.000000 
rhumerus -47.013787 -35.107581 -69.128190 
rradius 32.868373 
rwrist 41.470157 
rhand -21.672674 -4.098970 
rfingers 0.000000 
rthumb 4.724875 -34.026318 
lclavicle 0.000000 0.000000 
lhumerus -14.214380 15.343826 86.283795 
lradius 39.732204 
lwrist -35.085187 
lhand -11.452845 3.450505 
lfingers 0.000000 
lthumb 14.584271 32.917740 
rfemur -32.526867 2.205977 6.756613 
rtibia 14.213746 
rfoot -16.611802 -11.800473 
rtoes -22.147202 
lfemur 5.891530 -2.004460 -33.776301 
ltibia 10.660242 
lfoot -25.002487 5.063483 
ltoes -19.034539 
252
root -13.119574 16.539193 -6.670856 0.532246 -30.222112 12.625277
lowerback -8.773898 -3.426452 -10.898431 
upperback 2.511139 -3.139729 -1.691042 
thorax 8.165077 -2.000905 3.792492 
lowerneck -1.832672 -5.718244 -6.918409 
upperneck 7.223800 -7.825600 6.829228 
head 3.315261 -3.863257 3.216984 
rclavicle 0.000000 0.000000 
rhumerus -47.015126 -35.312526 -68.911061 
rradius 32.742454 
rwrist 41.818913 
rhand -21.795160 -4.021211 
rfingers 0.000000 
rthumb 4.606559 -33.951153 
lclavicle 0.000000 0.000000 
lhumerus -14.133516 15.317566 86.368651 
lradius 39.665939 
lwrist -35.035220 
lhand -11.512164 3.556410 
lfingers 0.000000 
lthumb 14.527064 33.027748 
rfemur -32.541616 1.911587 6.973379 
rtibia 14.675044 
rfoot -16.117679 -11.813084 
rtoes -22.644718 
lfemur 6.175083 -2.003595 -33.754354 
ltibia 10.686936 
lfoot -24.975676 4.973083 
ltoes -19.046974 
253
root -13.157169 16.528183 -6.617006 0.503916 -30.212733 12.691960
lowerback -8.829092 -3.451031 -10.949181 
upperback 2.514778 -3.159844 -1.674827 
thorax 8.208891 -2.015438 3.831243 
lowerneck -1.848057 -5.748940 -6.939205 
upperneck 7.204097 -7.861243 6.786725 
head 3.312875 -3.882635 3.203847 
rclavicle 0.000000 0.000000 
rhumerus -47.045676 -35.452423 -68.739306 
rradius 32.665174 
rwrist 42.103467 
rhand -21.816266 -4.181940 
rfingers 0.000000 
rthumb 4.586173 -34.112281 
lclavicle 0.000000 0.000000 
lhumerus -14.180589 15.401936 86.413364 
lradius 39.626292 
lwrist -35.199194 
lhand -11.596819 3.590659 
lfingers 0.000000 
lthumb 14.445471 33.067882 
rfemur -32.594142 1.645006 7.105298 
rtibia 15.134360 
rfoot -15.657640 -11.833888 
rtoes -23.015029 
lfemur 6.393357 -1.959901 -33.790305 
ltibia 10.754207 
lfoot -24.897091 4.817408 
ltoes -19.112813 
254
root -13.195816 16.518964 -6.563284 0.481641 -30.191793 12.710736
lowerback -8.869828 -3.472550 -10.954951 
upperback 2.489468 -3.184128 -1.674511 
thorax 8.208941 -2.026516 3.829368 
lowerneck -1.729756 -5.743672 -6.893654 
upperneck 7.131466 -7.857990 6.767559 
head 3.261306 -3.882632 3.191818 
rclavicle 0.000000 0.000000 
rhumerus -47.135513 -35.497622 -68.641655 
rradius 32.613983 
rwrist 42.119988 
rhand -21.809638 -4.405790 
rfingers 0.000000 
rthumb 4.592587 -34.335968 
lclavicle 0.000000 0.000000 
lhumerus -14.341655 15.530661 86.363739 
lradius 39.588597 
lwrist -35.394447 
lhand -11.621771 3.522428 
lfingers 0.000000 
lthumb 14.421432 33.001400 
rfemur -32.613690 1.410958 7.271356 
rtibia 15.609699 
rfoot -15.264447 -11.868252 
rtoes -22.851232 
lfemur 6.617707 -1.921784 -33.778002 
ltibia 10.847528 
lfoot -24.877868 4.719160 
ltoes -19.235153 
